<svg width="84" height="24" viewBox="0 0 84 24" fill="none" xmlns="http://www.w3.org/2000/svg">
<mask id="path-1-outside-1_123_8" maskUnits="userSpaceOnUse" x="0" y="0" width="84" height="24" fill="black">
<rect fill="white" width="84" height="24"/>
<path d="M0.656 23V0.599998H4.944L14.48 16.408H12.208L21.584 0.599998H25.84L25.904 23H21.04L21.008 8.056H21.904L14.416 20.632H12.08L4.432 8.056H5.52V23H0.656ZM36.8865 23V13.848L38.0705 16.984L28.2145 0.599998H33.7185L41.2705 13.176H38.1025L45.6865 0.599998H50.7745L40.9185 16.984L42.0705 13.848V23H36.8865ZM52.856 23V0.599998H63.032C65.464 0.599998 67.608 1.06933 69.464 2.008C71.32 2.92533 72.7707 4.216 73.816 5.88C74.8613 7.544 75.384 9.51733 75.384 11.8C75.384 14.0613 74.8613 16.0347 73.816 17.72C72.7707 19.384 71.32 20.6853 69.464 21.624C67.608 22.5413 65.464 23 63.032 23H52.856ZM58.04 18.744H62.776C64.2693 18.744 65.56 18.4667 66.648 17.912C67.7573 17.336 68.6107 16.5253 69.208 15.48C69.8267 14.4347 70.136 13.208 70.136 11.8C70.136 10.3707 69.8267 9.144 69.208 8.12C68.6107 7.07467 67.7573 6.27467 66.648 5.72C65.56 5.144 64.2693 4.856 62.776 4.856H58.04V18.744Z"/>
<path d="M80.3045 23.256C79.4512 23.256 78.7152 22.968 78.0965 22.392C77.4992 21.7947 77.2005 21.0373 77.2005 20.12C77.2005 19.2027 77.4992 18.4667 78.0965 17.912C78.7152 17.336 79.4512 17.048 80.3045 17.048C81.1792 17.048 81.9152 17.336 82.5125 17.912C83.1098 18.4667 83.4085 19.2027 83.4085 20.12C83.4085 21.0373 83.1098 21.7947 82.5125 22.392C81.9152 22.968 81.1792 23.256 80.3045 23.256Z"/>
</mask>
<path d="M0.656 23V0.599998H4.944L14.48 16.408H12.208L21.584 0.599998H25.84L25.904 23H21.04L21.008 8.056H21.904L14.416 20.632H12.08L4.432 8.056H5.52V23H0.656ZM36.8865 23V13.848L38.0705 16.984L28.2145 0.599998H33.7185L41.2705 13.176H38.1025L45.6865 0.599998H50.7745L40.9185 16.984L42.0705 13.848V23H36.8865ZM52.856 23V0.599998H63.032C65.464 0.599998 67.608 1.06933 69.464 2.008C71.32 2.92533 72.7707 4.216 73.816 5.88C74.8613 7.544 75.384 9.51733 75.384 11.8C75.384 14.0613 74.8613 16.0347 73.816 17.72C72.7707 19.384 71.32 20.6853 69.464 21.624C67.608 22.5413 65.464 23 63.032 23H52.856ZM58.04 18.744H62.776C64.2693 18.744 65.56 18.4667 66.648 17.912C67.7573 17.336 68.6107 16.5253 69.208 15.48C69.8267 14.4347 70.136 13.208 70.136 11.8C70.136 10.3707 69.8267 9.144 69.208 8.12C68.6107 7.07467 67.7573 6.27467 66.648 5.72C65.56 5.144 64.2693 4.856 62.776 4.856H58.04V18.744Z" fill="#4E2A84"/>
<path d="M80.3045 23.256C79.4512 23.256 78.7152 22.968 78.0965 22.392C77.4992 21.7947 77.2005 21.0373 77.2005 20.12C77.2005 19.2027 77.4992 18.4667 78.0965 17.912C78.7152 17.336 79.4512 17.048 80.3045 17.048C81.1792 17.048 81.9152 17.336 82.5125 17.912C83.1098 18.4667 83.4085 19.2027 83.4085 20.12C83.4085 21.0373 83.1098 21.7947 82.5125 22.392C81.9152 22.968 81.1792 23.256 80.3045 23.256Z" fill="#FF0000"/>
<path d="M0.656 23H0.456V23.2H0.656V23ZM0.656 0.599998V0.399998H0.456V0.599998H0.656ZM4.944 0.599998L5.11525 0.496692L5.05692 0.399998H4.944V0.599998ZM14.48 16.408V16.608H14.8342L14.6513 16.3047L14.48 16.408ZM12.208 16.408L12.036 16.306L11.8568 16.608H12.208V16.408ZM21.584 0.599998V0.399998H21.4701L21.412 0.497971L21.584 0.599998ZM25.84 0.599998L26.04 0.599427L26.0394 0.399998H25.84V0.599998ZM25.904 23V23.2H26.1046L26.104 22.9994L25.904 23ZM21.04 23L20.84 23.0004L20.8404 23.2H21.04V23ZM21.008 8.056V7.856H20.8076L20.808 8.05643L21.008 8.056ZM21.904 8.056L22.0758 8.15832L22.2559 7.856H21.904V8.056ZM14.416 20.632V20.832H14.5297L14.5878 20.7343L14.416 20.632ZM12.08 20.632L11.9091 20.7359L11.9675 20.832H12.08V20.632ZM4.432 8.056V7.856H4.07629L4.26112 8.15992L4.432 8.056ZM5.52 8.056H5.72V7.856H5.52V8.056ZM5.52 23V23.2H5.72V23H5.52ZM0.856 23V0.599998H0.456V23H0.856ZM0.656 0.799998H4.944V0.399998H0.656V0.799998ZM4.77275 0.703305L14.3087 16.5113L14.6513 16.3047L5.11525 0.496692L4.77275 0.703305ZM14.48 16.208H12.208V16.608H14.48V16.208ZM12.38 16.51L21.756 0.702026L21.412 0.497971L12.036 16.306L12.38 16.51ZM21.584 0.799998H25.84V0.399998H21.584V0.799998ZM25.64 0.60057L25.704 23.0006L26.104 22.9994L26.04 0.599427L25.64 0.60057ZM25.904 22.8H21.04V23.2H25.904V22.8ZM21.24 22.9996L21.208 8.05557L20.808 8.05643L20.84 23.0004L21.24 22.9996ZM21.008 8.256H21.904V7.856H21.008V8.256ZM21.7322 7.95368L14.2442 20.5297L14.5878 20.7343L22.0758 8.15832L21.7322 7.95368ZM14.416 20.432H12.08V20.832H14.416V20.432ZM12.2509 20.5281L4.60288 7.95208L4.26112 8.15992L11.9091 20.7359L12.2509 20.5281ZM4.432 8.256H5.52V7.856H4.432V8.256ZM5.32 8.056V23H5.72V8.056H5.32ZM5.52 22.8H0.656V23.2H5.52V22.8ZM36.8865 23H36.6865V23.2H36.8865V23ZM36.8865 13.848L37.0736 13.7774L36.6865 13.848H36.8865ZM38.0705 16.984L37.8991 17.0871L38.2576 16.9134L38.0705 16.984ZM28.2145 0.599998V0.399998H27.8608L28.0431 0.703094L28.2145 0.599998ZM33.7185 0.599998L33.89 0.497035L33.8317 0.399998H33.7185V0.599998ZM41.2705 13.176V13.376H41.6239L41.442 13.073L41.2705 13.176ZM38.1025 13.176L37.9312 13.0727L37.7483 13.376H38.1025V13.176ZM45.6865 0.599998V0.399998H45.5736L45.5152 0.496715L45.6865 0.599998ZM50.7745 0.599998L50.9459 0.703094L51.1282 0.399998H50.7745V0.599998ZM40.9185 16.984L40.7308 16.915L41.0899 17.0871L40.9185 16.984ZM42.0705 13.848H42.2705L41.8828 13.779L42.0705 13.848ZM42.0705 23V23.2H42.2705V23H42.0705ZM37.0865 23V13.848H36.6865V23H37.0865ZM36.6994 13.9186L37.8834 17.0546L38.2576 16.9134L37.0736 13.7774L36.6994 13.9186ZM38.2419 16.8809L28.3859 0.496902L28.0431 0.703094L37.8991 17.0871L38.2419 16.8809ZM28.2145 0.799998H33.7185V0.399998H28.2145V0.799998ZM33.547 0.702962L41.099 13.279L41.442 13.073L33.89 0.497035L33.547 0.702962ZM41.2705 12.976H38.1025V13.376H41.2705V12.976ZM38.2738 13.2793L45.8578 0.703282L45.5152 0.496715L37.9312 13.0727L38.2738 13.2793ZM45.6865 0.799998H50.7745V0.399998H45.6865V0.799998ZM50.6031 0.496902L40.7471 16.8809L41.0899 17.0871L50.9459 0.703094L50.6031 0.496902ZM41.1062 17.053L42.2582 13.917L41.8828 13.779L40.7308 16.915L41.1062 17.053ZM41.8705 13.848V23H42.2705V13.848H41.8705ZM42.0705 22.8H36.8865V23.2H42.0705V22.8ZM52.856 23H52.656V23.2H52.856V23ZM52.856 0.599998V0.399998H52.656V0.599998H52.856ZM69.464 2.008L69.3737 2.18648L69.3754 2.1873L69.464 2.008ZM73.816 5.88L73.6466 5.98639L73.816 5.88ZM73.816 17.72L73.9854 17.8264L73.986 17.8254L73.816 17.72ZM69.464 21.624L69.5526 21.8033L69.5543 21.8025L69.464 21.624ZM58.04 18.744H57.84V18.944H58.04V18.744ZM66.648 17.912L66.7388 18.0902L66.7402 18.0895L66.648 17.912ZM69.208 15.48L69.0359 15.3781L69.0344 15.3808L69.208 15.48ZM69.208 8.12L69.0343 8.21926L69.0368 8.22342L69.208 8.12ZM66.648 5.72L66.5544 5.8968L66.5586 5.89888L66.648 5.72ZM58.04 4.856V4.656H57.84V4.856H58.04ZM53.056 23V0.599998H52.656V23H53.056ZM52.856 0.799998H63.032V0.399998H52.856V0.799998ZM63.032 0.799998C65.4379 0.799998 67.5501 1.26417 69.3737 2.18647L69.5543 1.82953C67.6659 0.874493 65.4901 0.399998 63.032 0.399998V0.799998ZM69.3754 2.1873C71.2001 3.08917 72.622 4.35539 73.6466 5.98639L73.9854 5.77361C72.9193 4.07661 71.4399 2.7615 69.5526 1.8287L69.3754 2.1873ZM73.6466 5.98639C74.6689 7.61365 75.184 9.54878 75.184 11.8H75.584C75.584 9.48589 75.0538 7.47435 73.9854 5.77361L73.6466 5.98639ZM75.184 11.8C75.184 14.0294 74.6691 15.9652 73.646 17.6146L73.986 17.8254C75.0536 16.1042 75.584 14.0932 75.584 11.8H75.184ZM73.6466 17.6136C72.6218 19.245 71.1993 20.5223 69.3737 21.4455L69.5543 21.8025C71.4407 20.8484 72.9196 19.523 73.9854 17.8264L73.6466 17.6136ZM69.3754 21.4447C67.5514 22.3462 65.4386 22.8 63.032 22.8V23.2C65.4894 23.2 67.6646 22.7364 69.5526 21.8033L69.3754 21.4447ZM63.032 22.8H52.856V23.2H63.032V22.8ZM58.04 18.944H62.776V18.544H58.04V18.944ZM62.776 18.944C64.294 18.944 65.6171 18.662 66.7388 18.0902L66.5572 17.7338C65.5029 18.2713 64.2447 18.544 62.776 18.544V18.944ZM66.7402 18.0895C67.8822 17.4965 68.7645 16.6593 69.3817 15.5792L69.0344 15.3808C68.4568 16.3914 67.6324 17.1755 66.5558 17.7345L66.7402 18.0895ZM69.3801 15.5819C70.0198 14.5011 70.336 13.2381 70.336 11.8H69.936C69.936 13.1779 69.6336 14.3683 69.0359 15.3781L69.3801 15.5819ZM70.336 11.8C70.336 10.3414 70.0201 9.07738 69.3792 8.01658L69.0368 8.22342C69.6333 9.21062 69.936 10.4 69.936 11.8H70.336ZM69.3817 8.02077C68.7641 6.94008 67.881 6.11287 66.7374 5.54111L66.5586 5.89888C67.6337 6.43646 68.4572 7.20926 69.0344 8.21923L69.3817 8.02077ZM66.7416 5.54324C65.6192 4.94905 64.2951 4.656 62.776 4.656V5.056C64.2436 5.056 65.5008 5.33894 66.5544 5.89676L66.7416 5.54324ZM62.776 4.656H58.04V5.056H62.776V4.656ZM57.84 4.856V18.744H58.24V4.856H57.84ZM78.0965 22.392L77.955 22.5335L77.9602 22.5384L78.0965 22.392ZM78.0965 17.912L78.2326 18.0586L78.2328 18.0584L78.0965 17.912ZM82.5125 17.912L82.3737 18.056L82.3764 18.0586L82.5125 17.912ZM82.5125 22.392L82.6514 22.536L82.6539 22.5334L82.5125 22.392ZM80.3045 23.056C79.5012 23.056 78.814 22.7868 78.2328 22.2456L77.9602 22.5384C78.6163 23.1492 79.4011 23.456 80.3045 23.456V23.056ZM78.2379 22.2506C77.6815 21.6942 77.4005 20.9893 77.4005 20.12H77.0005C77.0005 21.0854 77.3168 21.8952 77.9551 22.5334L78.2379 22.2506ZM77.4005 20.12C77.4005 19.2506 77.6813 18.5704 78.2326 18.0586L77.9604 17.7654C77.317 18.3629 77.0005 19.1548 77.0005 20.12H77.4005ZM78.2328 18.0584C78.814 17.5172 79.5012 17.248 80.3045 17.248V16.848C79.4011 16.848 78.6163 17.1548 77.9602 17.7656L78.2328 18.0584ZM80.3045 17.248C81.1305 17.248 81.8158 17.518 82.3737 18.056L82.6513 17.768C82.0146 17.154 81.2279 16.848 80.3045 16.848V17.248ZM82.3764 18.0586C82.9277 18.5704 83.2085 19.2506 83.2085 20.12H83.6085C83.6085 19.1548 83.292 18.3629 82.6486 17.7654L82.3764 18.0586ZM83.2085 20.12C83.2085 20.9893 82.9275 21.6942 82.3711 22.2506L82.6539 22.5334C83.2922 21.8952 83.6085 21.0854 83.6085 20.12H83.2085ZM82.3737 22.248C81.8158 22.786 81.1305 23.056 80.3045 23.056V23.456C81.2279 23.456 82.0146 23.15 82.6513 22.536L82.3737 22.248Z" fill="white" mask="url(#path-1-outside-1_123_8)"/>
</svg>
